<svg width="17" height="17" viewBox="0 0 17 17" fill="none" xmlns="http://www.w3.org/2000/svg">
<circle cx="8.5" cy="8.5" r="8.5" fill="#004FBF"/>
<path d="M8.717 12.11C10.092 12.11 11.137 11.252 11.137 9.877C11.137 8.975 10.598 8.172 9.641 8.018V7.985C10.422 7.655 10.84 6.973 10.84 6.137C10.84 4.927 10.004 4.19 8.717 4.19C7.716 4.19 6.924 4.641 6.572 5.422L7.067 6.027C7.408 5.433 7.892 5.07 8.651 5.07C9.432 5.07 9.905 5.532 9.905 6.291C9.905 7.083 9.256 7.622 8.574 7.622H8.024V8.502H8.629C9.553 8.502 10.202 9.019 10.202 9.844C10.202 10.625 9.641 11.23 8.684 11.23C7.969 11.23 7.276 10.878 6.891 10.163L6.385 10.79C6.781 11.648 7.65 12.11 8.717 12.11Z" fill="white"/>
</svg>
