<svg width="429" height="43" viewBox="0 0 429 43" fill="none" xmlns="http://www.w3.org/2000/svg">
<path d="M427.739 35.3051C428.46 34.8967 428.713 33.9813 428.305 33.2606L421.65 21.5149C421.242 20.7941 420.326 20.5408 419.606 20.9492C418.885 21.3576 418.632 22.273 419.04 22.9937L424.955 33.4344L414.515 39.3499C413.794 39.7583 413.541 40.6736 413.949 41.3944C414.358 42.1152 415.273 42.3684 415.994 41.96L427.739 35.3051ZM261.118 2L261.282 0.508962L261.2 0.5H261.118V2ZM170.109 2V0.5H170.028L169.948 0.508693L170.109 2ZM85.5545 11.1429L85.3933 9.65155L85.2765 9.66418L85.1631 9.69483L85.5545 11.1429ZM344.382 11.1429L344.782 9.69716L344.665 9.66499L344.546 9.65182L344.382 11.1429ZM1.39144 35.448L11.9608 32.5909L11.1779 29.6948L0.608564 32.552L1.39144 35.448ZM33.0994 26.8766L54.238 21.1623L53.4552 18.2663L32.3165 23.9805L33.0994 26.8766ZM75.3767 15.448L85.946 12.5909L85.1631 9.69483L74.5938 12.552L75.3767 15.448ZM85.7158 12.6342L96.2851 11.4913L95.9626 8.50869L85.3933 9.65155L85.7158 12.6342ZM117.424 9.20559L138.562 6.91988L138.24 3.93726L117.101 6.22298L117.424 9.20559ZM159.701 4.63416L170.27 3.49131L169.948 0.508693L159.379 1.65155L159.701 4.63416ZM170.109 3.5H181.485V0.5H170.109V3.5ZM204.237 3.5H226.99V0.5H204.237V3.5ZM249.742 3.5H261.118V0.5H249.742V3.5ZM260.954 3.49104L271.362 4.6339L271.69 1.65182L261.282 0.508962L260.954 3.49104ZM292.178 6.91961L312.994 9.20532L313.322 6.22325L292.506 3.93753L292.178 6.91961ZM333.81 11.491L344.218 12.6339L344.546 9.65182L334.138 8.50896L333.81 11.491ZM343.982 12.5885L354.309 15.4457L355.109 12.5543L344.782 9.69716L343.982 12.5885ZM374.964 21.16L395.618 26.8743L396.418 23.9829L375.764 18.2686L374.964 21.16ZM416.273 32.5885L426.6 35.4457L427.4 32.5543L417.073 29.6972L416.273 32.5885Z" fill="#004FBF"/>
</svg>
