<svg width="540" height="52" viewBox="0 0 540 52" fill="none" xmlns="http://www.w3.org/2000/svg">
<path d="M539.304 9.74179C539.713 9.02174 539.462 8.10593 538.742 7.69628L527.008 1.02058C526.288 0.610923 525.372 0.862552 524.962 1.5826C524.553 2.30266 524.804 3.21846 525.524 3.62812L535.954 9.56207L530.021 19.9922C529.611 20.7123 529.863 21.6281 530.583 22.0377C531.303 22.4474 532.218 22.1958 532.628 21.4757L539.304 9.74179ZM210.105 50L209.938 51.4907L210.021 51.5L210.105 51.5L210.105 50ZM324.827 50L324.827 51.5L324.909 51.5L324.991 51.491L324.827 50ZM431.414 38.2857L431.578 39.7767L431.696 39.7637L431.811 39.7321L431.414 38.2857ZM105.145 38.2857L104.739 39.7297L104.857 39.7628L104.979 39.7764L105.145 38.2857ZM537.603 7.55365L528.72 9.99412L529.515 12.8869L538.397 10.4464L537.603 7.55365ZM510.956 14.8751L493.192 19.756L493.986 22.6488L511.751 17.7679L510.956 14.8751ZM475.427 24.637L457.663 29.5179L458.458 32.4107L476.222 27.5298L475.427 24.637ZM439.898 34.3988L431.016 36.8393L431.811 39.7321L440.693 37.2916L439.898 34.3988ZM431.25 36.7947L422.368 37.7709L422.695 40.7529L431.578 39.7767L431.25 36.7947ZM404.603 39.7233L386.839 41.6756L387.167 44.6577L404.931 42.7053L404.603 39.7233ZM369.074 43.628L351.31 45.5804L351.638 48.5624L369.402 46.6101L369.074 43.628ZM333.546 47.5328L324.663 48.509L324.991 51.491L333.873 50.5148L333.546 47.5328ZM324.827 48.5L315.267 48.5L315.267 51.5L324.827 51.5L324.827 48.5ZM296.147 48.5L277.026 48.5L277.026 51.5L296.147 51.5L296.147 48.5ZM257.906 48.5L238.785 48.5L238.785 51.5L257.906 51.5L257.906 48.5ZM219.665 48.5L210.105 48.5L210.105 51.5L219.665 51.5L219.665 48.5ZM210.271 48.5092L201.524 47.533L201.192 50.5145L209.938 51.4907L210.271 48.5092ZM184.031 45.5807L166.538 43.6283L166.205 46.6098L183.698 48.5621L184.031 45.5807ZM149.045 41.6759L131.552 39.7235L131.219 42.705L148.712 44.6574L149.045 41.6759ZM114.058 37.7711L105.312 36.7949L104.979 39.7764L113.726 40.7526L114.058 37.7711ZM105.552 36.8417L96.8727 34.4012L96.0606 37.2892L104.739 39.7297L105.552 36.8417ZM79.5151 29.5203L62.1576 24.6393L61.3455 27.5273L78.703 32.4083L79.5151 29.5203ZM44.8 19.7584L27.4424 14.8774L26.6303 17.7654L43.9879 22.6464L44.8 19.7584ZM10.0848 9.99648L1.40607 7.556L0.593937 10.444L9.27271 12.8845L10.0848 9.99648Z" fill="#004FBF"/>
</svg>
