<svg width="736" height="156" viewBox="0 0 736 156" fill="none" xmlns="http://www.w3.org/2000/svg">
<path d="M0.241643 152.971C0.205664 153.798 0.847437 154.498 1.67508 154.534L15.1623 155.121C15.99 155.157 16.6901 154.515 16.7261 153.687C16.7621 152.86 16.1203 152.159 15.2926 152.123L3.30396 151.602L3.82513 139.614C3.8611 138.786 3.21933 138.086 2.39169 138.05C1.56404 138.014 0.863935 138.656 0.827956 139.483L0.241643 152.971ZM122.575 48.2422L121.78 46.9703L121.714 47.0118L121.652 47.0601L122.575 48.2422ZM243.448 15.309L243.7 13.8304L243.603 13.8137L243.504 13.8101L243.448 15.309ZM426.653 46.5303L426.401 48.0089L426.499 48.0257L426.599 48.0293L426.653 46.5303ZM78.5016 82.6703L77.5782 81.4882L77.5316 81.5246L77.488 81.5645L78.5016 82.6703ZM621.036 53.4998L620.982 54.9988L621.054 55.0014L621.125 54.9971L621.036 53.4998ZM693.379 42.0694L693.793 43.511L694.166 43.4041L694.44 43.1304L693.379 42.0694ZM662.132 51.0488L662.221 52.5462L662.387 52.5363L662.546 52.4905L662.132 51.0488ZM202.267 13.7822L202.323 12.2832L202.147 12.2767L201.974 12.311L202.267 13.7822ZM166.224 20.9559L165.931 19.4847L165.661 19.5383L165.428 19.6839L166.224 20.9559ZM733.043 0.311375L722.862 10.4856L724.983 12.6077L735.164 2.4334L733.043 0.311375ZM702.5 30.8341L692.319 41.0084L694.44 43.1304L704.621 32.9561L702.5 30.8341ZM692.965 40.6277L685.153 42.8726L685.982 45.7559L693.793 43.511L692.965 40.6277ZM669.529 47.3623L661.718 49.6072L662.546 52.4905L670.358 50.2456L669.529 47.3623ZM662.043 49.5515L651.769 50.1642L651.947 53.1589L662.221 52.5462L662.043 49.5515ZM631.221 51.3897L620.947 52.0025L621.125 54.9971L631.399 54.3844L631.221 51.3897ZM621.09 52.0008L608.941 51.5652L608.833 54.5632L620.982 54.9988L621.09 52.0008ZM584.643 50.694L560.345 49.8228L560.237 52.8209L584.535 53.6921L584.643 50.694ZM536.047 48.9516L511.749 48.0804L511.642 51.0785L535.94 51.9497L536.047 48.9516ZM487.451 47.2092L463.153 46.338L463.046 49.3361L487.344 50.2073L487.451 47.2092ZM438.855 45.4668L426.706 45.0312L426.599 48.0293L438.748 48.4649L438.855 45.4668ZM426.905 45.0516L415.454 43.1003L414.95 46.0576L426.401 48.0089L426.905 45.0516ZM392.554 39.1976L369.653 35.2949L369.149 38.2523L392.05 42.155L392.554 39.1976ZM346.753 31.3923L323.852 27.4896L323.348 30.447L346.249 34.3497L346.753 31.3923ZM300.952 23.587L278.051 19.6843L277.547 22.6417L300.448 26.5443L300.952 23.587ZM255.151 15.7817L243.7 13.8304L243.196 16.7877L254.647 18.739L255.151 15.7817ZM243.504 13.8101L233.209 13.4283L233.098 16.4263L243.393 16.808L243.504 13.8101ZM212.618 12.6649L202.323 12.2832L202.212 15.2811L212.507 15.6629L212.618 12.6649ZM201.974 12.311L192.963 14.1044L193.549 17.0467L202.56 15.2533L201.974 12.311ZM174.942 17.6913L165.931 19.4847L166.516 22.427L175.527 20.6336L174.942 17.6913ZM165.428 19.6839L154.516 26.5055L156.107 29.0494L167.019 22.2278L165.428 19.6839ZM132.692 40.1487L121.78 46.9703L123.37 49.5141L134.282 42.6925L132.692 40.1487ZM121.652 47.0601L110.633 55.6671L112.48 58.0313L123.499 49.4243L121.652 47.0601ZM88.5966 72.8812L77.5782 81.4882L79.4249 83.8524L90.4433 75.2453L88.5966 72.8812ZM77.488 81.5645L67.8928 90.3602L69.92 92.5717L79.5151 83.776L77.488 81.5645ZM48.7025 107.952L29.5121 125.543L31.5393 127.754L50.7297 110.163L48.7025 107.952ZM10.3218 143.134L0.726634 151.93L2.75382 154.141L12.349 145.346L10.3218 143.134Z" fill="#004FBF"/>
</svg>
